# Blender v3.0.0 OBJ File: ''
# www.blender.org
o Cube.003_Cube.005
v 13.500000 -1.500000 13.500000
v 12.000000 0.000000 11.999999
v 13.500000 -1.500000 -13.500000
v 11.999999 0.000000 -12.000000
v -12.000000 0.000000 -11.999999
v 13.500000 13.500000 -13.500002
v -12.000000 12.000000 -12.000002
v -13.500002 -1.500000 -13.499998
v -11.999999 0.000000 12.000002
v -13.500003 13.500000 -13.499998
v -13.500000 13.500000 13.500002
v -13.499998 -1.500000 13.500002
v 12.000002 12.000004 -11.999999
v 13.499998 13.499996 13.500002
v 11.999999 11.999996 12.000002
v -12.000002 11.999996 11.999999
vn 0.0000 -1.0000 0.0000
vn 0.0000 1.0000 0.0000
vn 1.0000 0.0000 0.0000
vn -1.0000 -0.0000 -0.0000
vn -0.0000 -0.0000 -1.0000
vn 0.0000 0.0000 1.0000
s off
f 12//1 8//1 3//1 1//1
f 5//2 9//2 2//2 4//2
f 3//3 6//3 14//3 1//3
f 13//4 4//4 2//4 15//4
f 8//5 10//5 6//5 3//5
f 7//6 5//6 4//6 13//6
f 12//4 11//4 10//4 8//4
f 16//3 9//3 5//3 7//3
f 1//6 14//6 11//6 12//6
f 15//5 2//5 9//5 16//5
f 10//2 11//2 14//2 6//2
f 16//1 7//1 13//1 15//1
